<svg width="50" height="50" viewBox="0 0 50 50" fill="none" xmlns="http://www.w3.org/2000/svg">
<g filter="url(#filter0_d_894_535)">
<rect x="10" y="10" width="30" height="30" rx="15" fill="url(#paint0_linear_894_535)"/>
</g>
<path d="M20.2998 21.2752C20.3121 21.2903 21.2049 22.3872 21.7959 22.8094C22.3841 23.2294 23.6235 23.6598 23.6523 23.6697C23.6643 23.6977 24.8065 26.3832 24.3428 28.8025C23.8803 31.2138 22.0085 33.1208 21.9766 33.1531C21.9442 33.1341 18.0002 30.8114 18 26.9627C18.0002 23.1233 20.2704 21.2987 20.2998 21.2752ZM29.7002 21.2752C29.7296 21.2987 31.9998 23.1233 32 26.9627C31.9998 30.8114 28.0558 33.1341 28.0234 33.1531C27.9915 33.1208 26.1197 31.2138 25.6572 28.8025C25.1935 26.3832 26.3357 23.6977 26.3477 23.6697C26.3765 23.6598 27.6159 23.2294 28.2041 22.8094C28.7951 22.3872 29.6879 21.2903 29.7002 21.2752ZM27.3545 17.3211C27.592 16.9818 28.0601 16.899 28.3994 17.1365C28.7385 17.3741 28.8204 17.8413 28.583 18.1805L27.3672 19.9168C28.157 20.1691 28.6953 20.4412 28.6953 20.4412C28.6813 20.4652 27.3684 22.7029 25.1504 22.7029C22.9378 22.7028 21.3602 20.6276 21.3359 20.5955C21.3359 20.5955 21.8983 20.2372 22.7314 19.9295L21.4072 18.3514C21.1411 18.0341 21.1828 17.5609 21.5 17.2947C21.8173 17.0287 22.2905 17.0703 22.5566 17.3875L24.249 19.4051C24.2829 19.4455 24.312 19.4883 24.3359 19.533C24.5349 19.5098 24.7376 19.4959 24.9424 19.4959C25.2295 19.4959 25.516 19.5192 25.7959 19.5564C25.8101 19.5298 25.826 19.5037 25.8438 19.4783L27.3545 17.3211Z" fill="white"/>
<defs>
<filter id="filter0_d_894_535" x="0" y="0" width="50" height="50" filterUnits="userSpaceOnUse" color-interpolation-filters="sRGB">
<feFlood flood-opacity="0" result="BackgroundImageFix"/>
<feColorMatrix in="SourceAlpha" type="matrix" values="0 0 0 0 0 0 0 0 0 0 0 0 0 0 0 0 0 0 127 0" result="hardAlpha"/>
<feOffset/>
<feGaussianBlur stdDeviation="5"/>
<feColorMatrix type="matrix" values="0 0 0 0 0.596078 0 0 0 0 0.764706 0 0 0 0 0.184314 0 0 0 0.7 0"/>
<feBlend mode="normal" in2="BackgroundImageFix" result="effect1_dropShadow_894_535"/>
<feBlend mode="normal" in="SourceGraphic" in2="effect1_dropShadow_894_535" result="shape"/>
</filter>
<linearGradient id="paint0_linear_894_535" x1="10" y1="10" x2="10" y2="40" gradientUnits="userSpaceOnUse">
<stop stop-color="#92BC2C"/>
<stop offset="1" stop-color="#AFC836"/>
</linearGradient>
</defs>
</svg>
