<svg width="50" height="50" viewBox="0 0 50 50" fill="none" xmlns="http://www.w3.org/2000/svg">
<g filter="url(#filter0_d_894_531)">
<rect x="10" y="10" width="30" height="30" rx="15" fill="url(#paint0_linear_894_531)"/>
</g>
<path fill-rule="evenodd" clip-rule="evenodd" d="M25.7798 24.965C25.8882 24.8989 25.9802 24.7603 26.0544 24.6063C27.0308 25.0054 27.7169 25.9484 27.7169 27.0481C27.7169 28.5091 26.506 29.6934 25.0123 29.6934C24.3991 29.6934 24.0775 29.6406 23.515 29.3398C23.1946 29.1338 23.1086 29.0193 23.0084 28.9639C22.853 28.878 22.7511 28.8217 22.6873 28.8305C22.5008 28.8562 22.555 29.0278 22.6042 29.1837C22.6376 29.2896 22.6687 29.3883 22.6205 29.429C22.5701 29.4716 22.4067 29.3158 22.2158 29.1338C21.9559 28.886 21.645 28.5896 21.4985 28.6787C21.3825 28.7491 21.4951 28.94 21.6328 29.1738L21.643 29.1911C21.7012 29.29 21.7687 29.3905 21.8302 29.4824C21.9553 29.669 22.0561 29.8193 22.0056 29.8448C21.9447 29.8755 21.5202 29.589 21.1624 29.1911C21.0243 29.0376 20.8905 28.8711 20.7662 28.7165C20.4941 28.3779 20.2674 28.0959 20.1402 28.1293C19.9871 28.1695 20.1029 28.4852 20.273 28.7891C20.3526 28.9312 20.4462 29.0759 20.5272 29.2011C20.6533 29.396 20.7489 29.5438 20.7142 29.562C20.6674 29.5865 20.2555 29.1848 19.9757 28.6787C19.8096 28.378 19.67 28.0458 19.5571 27.7768C19.4346 27.4851 19.3433 27.2678 19.2832 27.2459C19.0745 27.1699 19.0745 27.5956 19.1582 28.21C19.1691 28.2901 19.1854 28.3741 19.2054 28.4597C20.0174 31.087 22.5118 33 25.463 33C29.0729 33 31.9993 30.1379 31.9993 26.6072C31.9993 23.2469 29.3484 20.4921 25.9803 20.2342C25.9846 20.0759 26.0672 19.762 26.0672 19.762C26.0672 19.762 26.6618 18.3233 26.6932 18.0159C26.6953 17.9955 26.6978 17.9734 26.7004 17.9497C26.7375 17.6176 26.8063 17 26.275 17C25.9913 17 25.8593 17.2111 25.7084 17.4525C25.6505 17.5452 25.5898 17.6423 25.5166 17.7337C24.9895 18.392 24.1031 19.214 23.6005 19.652C22.5382 20.5776 21.4959 21.3384 20.888 21.7821C20.6116 21.9839 20.4249 22.1201 20.3672 22.1764C19.932 22.6006 18.3716 25.4152 18.3716 25.4152C18.3716 25.4152 17.867 26.3182 18.0464 26.5013C18.2257 26.6845 18.6583 26.6425 18.6583 26.6425C18.6583 26.6425 24.4689 25.3095 24.9891 25.2043C25.1292 25.176 25.2281 25.1597 25.304 25.1472C25.5101 25.1131 25.5471 25.107 25.7798 24.965ZM21.6714 23.252C21.3595 23.5485 20.8422 24.2561 20.8422 24.2561C20.8422 24.2561 21.8036 24.3154 22.3331 23.8121C22.8626 23.3088 22.7412 22.451 22.7412 22.451C22.7412 22.451 21.9833 22.9555 21.6714 23.252Z" fill="white"/>
<defs>
<filter id="filter0_d_894_531" x="0" y="0" width="50" height="50" filterUnits="userSpaceOnUse" color-interpolation-filters="sRGB">
<feFlood flood-opacity="0" result="BackgroundImageFix"/>
<feColorMatrix in="SourceAlpha" type="matrix" values="0 0 0 0 0 0 0 0 0 0 0 0 0 0 0 0 0 0 127 0" result="hardAlpha"/>
<feOffset/>
<feGaussianBlur stdDeviation="5"/>
<feColorMatrix type="matrix" values="0 0 0 0 0.027451 0 0 0 0 0.427451 0 0 0 0 0.752941 0 0 0 0.7 0"/>
<feBlend mode="normal" in2="BackgroundImageFix" result="effect1_dropShadow_894_531"/>
<feBlend mode="normal" in="SourceGraphic" in2="effect1_dropShadow_894_531" result="shape"/>
</filter>
<linearGradient id="paint0_linear_894_531" x1="10.1934" y1="10" x2="10.1934" y2="39.6132" gradientUnits="userSpaceOnUse">
<stop stop-color="#0C69C8"/>
<stop offset="1" stop-color="#0180C7"/>
</linearGradient>
</defs>
</svg>
