<svg width="50" height="50" viewBox="0 0 50 50" fill="none" xmlns="http://www.w3.org/2000/svg">
<g filter="url(#filter0_d_894_463)">
<rect x="10" y="10" width="30" height="30" rx="15" fill="url(#paint0_linear_894_463)"/>
</g>
<path d="M24.3328 18C24.3536 18.0184 25.6816 19.1989 26.0545 20.7197C26.4303 22.2525 25.186 24.3396 26.7478 24.2578C28.3096 24.176 26.9519 21.7676 26.9519 21.7676C26.9519 21.7676 30.495 23.6299 30.2303 26.8867C29.9665 30.1314 26.3847 30.8783 26.3582 30.8838C26.3702 30.8739 27.302 30.1053 27.4842 29.4404C27.6672 28.7712 27.3123 27.3945 27.3123 27.3945C27.3123 27.3945 27.0547 28.5152 26.6521 28.9297C26.3087 29.283 25.8875 29.5264 25.284 29.5908C25.7771 29.351 26.117 28.8528 26.117 28.2754C26.1168 27.4648 25.4484 26.8079 24.6238 26.8076C23.799 26.8076 23.1299 27.4647 23.1297 28.2754C23.1297 28.4963 23.1804 28.7056 23.2693 28.8936C22.7541 28.4825 22.6717 27.8252 22.6717 27.8252C22.6717 27.8252 22.096 30.2176 23.6834 31.3428C25.2709 32.4677 28.3807 31.501 28.3807 31.501C28.3807 31.501 23.9302 34.6316 20.6326 31.2236C17.7921 28.2879 19.8914 24.4229 19.8914 24.4229C19.8914 24.4229 19.8006 24.782 19.8006 25.1982C19.8007 25.6097 20.0212 25.9237 20.0262 25.9307C20.0349 25.9123 20.703 24.5078 21.2234 23.9346C22.1008 22.9684 23.3714 22.3249 23.8699 21.7676C25.0593 20.4376 24.3387 18.0197 24.3328 18Z" fill="white"/>
<defs>
<filter id="filter0_d_894_463" x="0" y="0" width="50" height="50" filterUnits="userSpaceOnUse" color-interpolation-filters="sRGB">
<feFlood flood-opacity="0" result="BackgroundImageFix"/>
<feColorMatrix in="SourceAlpha" type="matrix" values="0 0 0 0 0 0 0 0 0 0 0 0 0 0 0 0 0 0 127 0" result="hardAlpha"/>
<feOffset/>
<feGaussianBlur stdDeviation="5"/>
<feColorMatrix type="matrix" values="0 0 0 0 0.996078 0 0 0 0 0.619608 0 0 0 0 0.329412 0 0 0 0.7 0"/>
<feBlend mode="normal" in2="BackgroundImageFix" result="effect1_dropShadow_894_463"/>
<feBlend mode="normal" in="SourceGraphic" in2="effect1_dropShadow_894_463" result="shape"/>
</filter>
<linearGradient id="paint0_linear_894_463" x1="10" y1="10" x2="10" y2="40" gradientUnits="userSpaceOnUse">
<stop stop-color="#FB9B51"/>
<stop offset="1" stop-color="#FBAE46"/>
</linearGradient>
</defs>
</svg>
