<svg width="50" height="50" viewBox="0 0 50 50" fill="none" xmlns="http://www.w3.org/2000/svg">
<g filter="url(#filter0_d_894_546)">
<rect x="10" y="10" width="30" height="30" rx="15" fill="url(#paint0_linear_894_546)"/>
</g>
<path d="M30.5844 18.727C30.5844 18.727 32.1461 27.1655 29.2026 30.1091C26.6639 32.6477 23.6345 32.5921 21.3078 30.9881L23.3386 28.4918L26.9439 27.7122L24.0002 27.4173L25.8708 25.5094L28.0004 25.0426L26.3169 24.5427L28.0004 21.5002L25.6057 24.1905L24.6803 22.884L25.0063 25.0426L23.3379 26.9264L22.5645 24.5427V27.7122L20.4626 30.31C20.3917 30.2442 20.3208 30.1779 20.2519 30.1091C17.8498 27.7069 17.9503 23.5386 20.7388 21.1452C23.5188 18.7594 30.5407 18.7272 30.5844 18.727Z" fill="white"/>
<defs>
<filter id="filter0_d_894_546" x="0" y="0" width="50" height="50" filterUnits="userSpaceOnUse" color-interpolation-filters="sRGB">
<feFlood flood-opacity="0" result="BackgroundImageFix"/>
<feColorMatrix in="SourceAlpha" type="matrix" values="0 0 0 0 0 0 0 0 0 0 0 0 0 0 0 0 0 0 127 0" result="hardAlpha"/>
<feOffset/>
<feGaussianBlur stdDeviation="5"/>
<feColorMatrix type="matrix" values="0 0 0 0 0.392157 0 0 0 0 0.72549 0 0 0 0 0.329412 0 0 0 0.7 0"/>
<feBlend mode="normal" in2="BackgroundImageFix" result="effect1_dropShadow_894_546"/>
<feBlend mode="normal" in="SourceGraphic" in2="effect1_dropShadow_894_546" result="shape"/>
</filter>
<linearGradient id="paint0_linear_894_546" x1="10" y1="10" x2="10" y2="40" gradientUnits="userSpaceOnUse">
<stop stop-color="#5FBC51"/>
<stop offset="1" stop-color="#5AC178"/>
</linearGradient>
</defs>
</svg>
