<svg width="50" height="50" viewBox="0 0 50 50" fill="none" xmlns="http://www.w3.org/2000/svg">
<g filter="url(#filter0_d_894_513)">
<rect x="10" y="10" width="30" height="30" rx="15" fill="url(#paint0_linear_894_513)"/>
</g>
<path d="M22.5285 22.2871C22.6679 22.2871 22.7653 22.4256 22.7179 22.5566L20.0695 29.8672C20.0407 29.9467 19.9656 29.9999 19.881 30H17.6974C17.5572 29.9999 17.4599 29.8599 17.5089 29.7285L20.2472 22.418C20.2766 22.3395 20.3519 22.2872 20.4357 22.2871H22.5285ZM28.6222 19C28.7075 19.0002 28.7835 19.0542 28.8117 19.1348L32.4914 29.6895C32.5369 29.8201 32.4403 29.9569 32.3019 29.957H20.8683C20.8075 29.957 20.7652 29.8972 20.7853 29.8398L24.5734 19.1338C24.6018 19.0537 24.6778 19.0001 24.7629 19H28.6222Z" fill="white"/>
<defs>
<filter id="filter0_d_894_513" x="0" y="0" width="50" height="50" filterUnits="userSpaceOnUse" color-interpolation-filters="sRGB">
<feFlood flood-opacity="0" result="BackgroundImageFix"/>
<feColorMatrix in="SourceAlpha" type="matrix" values="0 0 0 0 0 0 0 0 0 0 0 0 0 0 0 0 0 0 127 0" result="hardAlpha"/>
<feOffset/>
<feGaussianBlur stdDeviation="5"/>
<feColorMatrix type="matrix" values="0 0 0 0 0.847059 0 0 0 0 0.509804 0 0 0 0 0.333333 0 0 0 0.7 0"/>
<feBlend mode="normal" in2="BackgroundImageFix" result="effect1_dropShadow_894_513"/>
<feBlend mode="normal" in="SourceGraphic" in2="effect1_dropShadow_894_513" result="shape"/>
</filter>
<linearGradient id="paint0_linear_894_513" x1="10.1934" y1="10" x2="10.1934" y2="39.6132" gradientUnits="userSpaceOnUse">
<stop stop-color="#DC7545"/>
<stop offset="1" stop-color="#D29463"/>
</linearGradient>
</defs>
</svg>
