<svg width="50" height="50" viewBox="0 0 50 50" fill="none" xmlns="http://www.w3.org/2000/svg">
<g filter="url(#filter0_d_894_453)">
<rect x="10" y="10" width="30" height="30" rx="15" fill="url(#paint0_linear_894_453)"/>
</g>
<path fill-rule="evenodd" clip-rule="evenodd" d="M29.1541 17.8366L29.2063 22.4142L25.2136 24.3309L25.1643 20.0087L29.1541 17.8366Z" fill="white"/>
<path fill-rule="evenodd" clip-rule="evenodd" d="M33.1566 25.0496L29.2041 27.3104L25.2493 25.046L29.2021 22.9697L33.1566 25.0496Z" fill="white"/>
<path fill-rule="evenodd" clip-rule="evenodd" d="M24.5453 25.0496L20.5928 27.3104L16.6379 25.046L20.5908 22.9697L24.5453 25.0496Z" fill="white"/>
<path fill-rule="evenodd" clip-rule="evenodd" d="M20.5492 17.8177L24.6516 19.8494L24.5467 24.2771L20.6732 22.3588L20.5492 17.8177Z" fill="white"/>
<path fill-rule="evenodd" clip-rule="evenodd" d="M29.2653 32.2126L25.1629 30.1808L25.2678 25.7531L29.1412 27.6715L29.2653 32.2126Z" fill="white"/>
<path fill-rule="evenodd" clip-rule="evenodd" d="M20.6896 32.2533L20.6375 27.6756L24.6302 25.7589L24.6794 30.0811L20.6896 32.2533Z" fill="white"/>
<defs>
<filter id="filter0_d_894_453" x="0" y="0" width="50" height="50" filterUnits="userSpaceOnUse" color-interpolation-filters="sRGB">
<feFlood flood-opacity="0" result="BackgroundImageFix"/>
<feColorMatrix in="SourceAlpha" type="matrix" values="0 0 0 0 0 0 0 0 0 0 0 0 0 0 0 0 0 0 127 0" result="hardAlpha"/>
<feOffset/>
<feGaussianBlur stdDeviation="5"/>
<feColorMatrix type="matrix" values="0 0 0 0 0.494118 0 0 0 0 0.831373 0 0 0 0 0.788235 0 0 0 0.7 0"/>
<feBlend mode="normal" in2="BackgroundImageFix" result="effect1_dropShadow_894_453"/>
<feBlend mode="normal" in="SourceGraphic" in2="effect1_dropShadow_894_453" result="shape"/>
</filter>
<linearGradient id="paint0_linear_894_453" x1="10" y1="10" x2="10" y2="40" gradientUnits="userSpaceOnUse">
<stop stop-color="#70CCBD"/>
<stop offset="1" stop-color="#8CDDD4"/>
</linearGradient>
</defs>
</svg>
