<svg width="199" height="203" viewBox="0 0 199 203" fill="none" xmlns="http://www.w3.org/2000/svg">
<path d="M2.7205 171.238C10.3365 189.822 22.7545 193.691 31.4853 189.822C48.3704 182.341 92.232 173.982 137.279 193.63C196.942 219.654 209.637 180.392 190.595 140.677C171.554 100.962 165.1 60.8 187.051 38.6729C209.002 16.5457 180.277 -18.0691 129.264 17.9625C96.2976 41.2475 72.1041 36.0626 59.1122 29.4801C46.8678 23.2762 33.2506 16.7905 20.4925 21.8545C5.01202 27.9996 -1.08778 41.3222 22.4651 71.0853C55.8415 113.262 -14.3518 129.58 2.7205 171.238Z" fill="#DCE0E8"/>
<path d="M33.7303 80.704H152.259V171.859C152.259 172.045 152.185 172.223 152.054 172.354C151.922 172.486 151.744 172.559 151.559 172.559H34.4303C34.2447 172.559 34.0666 172.486 33.9354 172.354C33.8041 172.223 33.7303 172.045 33.7303 171.859V80.704Z" fill="#4B60B9"/>
<path d="M122.524 44.9825H67.4106L33.7303 80.7039H152.259L122.524 44.9825Z" fill="#26367C"/>
<path d="M44.957 30.6938L67.4105 44.9825L33.7303 80.7039L8.21484 61.3122L44.957 30.6938Z" fill="#5162AB"/>
<path d="M144.977 30.6938L122.524 44.9825L152.258 80.7039L181.719 61.3122L144.977 30.6938Z" fill="#5162AB"/>
<path d="M81.8901 31.4244C82.5237 31.124 83.0167 30.5903 83.266 29.9349C83.5153 29.2795 83.5017 28.5531 83.2279 27.9075L73.127 4.08958C72.984 3.75221 72.7742 3.44725 72.5102 3.19305C72.2463 2.93884 71.9337 2.74064 71.5911 2.61036C71.2486 2.48008 70.8833 2.42041 70.5172 2.43494C70.151 2.44946 69.7916 2.53789 69.4604 2.69489L67.5144 3.61764C67.1833 3.77464 66.8874 3.99697 66.6444 4.27127C66.4014 4.54557 66.2164 4.86617 66.1005 5.2138C65.9846 5.56143 65.9402 5.92891 65.9699 6.29414C65.9997 6.65937 66.103 7.01482 66.2736 7.33912L78.3204 30.2342C78.6469 30.8547 79.2007 31.3251 79.8659 31.5469C80.5312 31.7688 81.2564 31.7249 81.8901 31.4244Z" fill="#FBE46C"/>
<path d="M94.5539 29.1154C95.0124 29.0827 95.4406 28.8741 95.749 28.5332C96.0574 28.1922 96.2221 27.7453 96.2088 27.2857L95.7098 10.3295C95.7028 10.0893 95.6472 9.85304 95.5465 9.63488C95.4457 9.41673 95.302 9.22118 95.1237 9.06002C94.9455 8.89885 94.7365 8.77539 94.5094 8.69704C94.2822 8.6187 94.0416 8.58709 93.8019 8.60412L92.3931 8.70451C92.1535 8.72156 91.9198 8.78688 91.7061 8.89654C91.4924 9.00619 91.3031 9.15792 91.1495 9.34261C90.9959 9.52729 90.8812 9.74112 90.8124 9.97124C90.7435 10.2014 90.7219 10.443 90.7488 10.6817L92.6566 27.5377C92.7082 27.9947 92.9344 28.414 93.288 28.7081C93.6416 29.0021 94.0952 29.148 94.5539 29.1154Z" fill="#FBE46C"/>
<path d="M104.33 35.3835C105.592 36.1128 107.362 35.4436 108.344 33.8662L125.784 5.85881C126.825 4.18567 126.579 2.14643 125.241 1.37293L123.376 0.294933C122.038 -0.478706 120.147 0.324611 119.217 2.06215L103.643 31.1474C102.766 32.7855 103.069 34.6541 104.33 35.3835Z" fill="#FBE46C"/>
<path d="M75.2202 77.3398C75.2202 77.3398 79.2202 64.8398 92.7202 64.8398C106.22 64.8398 110.22 77.3398 110.22 77.3398" stroke="#FBE46C" stroke-width="3" stroke-linecap="round" stroke-dasharray="7 7"/>
<path d="M62.2202 76.8398C62.2202 76.8398 64.7202 48.8398 92.2202 48.8398C119.72 48.8398 122.22 76.8398 122.22 76.8398" stroke="#FBE46C" stroke-width="3" stroke-linecap="round" stroke-dasharray="7 7"/>
</svg>
