<svg width="149" height="143" viewBox="0 0 149 143" fill="none" xmlns="http://www.w3.org/2000/svg">
<path d="M2.09383 126.788C7.95549 141.121 17.513 144.105 24.2327 141.121C37.2283 135.352 70.3293 125.968 105 141.121C122.5 146.528 157.969 126.788 146.692 103.218C132.037 72.5882 120.105 62.0938 137 45.0283C153.895 27.9628 138.75 -19.2145 99.4881 8.57486C74.1155 26.5333 60.4992 12.1051 50.5 7.02832C41.0761 2.24364 22 5.02832 15.7721 11.5766C11 16.5941 2.09383 31.5283 17.2903 49.5457C42.9785 82.0743 -11.0459 94.6595 2.09383 126.788Z" fill="#DCE0E8"/>
<path d="M85.9314 81.9314C85.9314 81.9314 93.8529 78.467 93.2285 77.914C92.6059 77.3609 92.8183 76.8061 92.8183 76.8061C92.8183 76.8061 94.5762 76.5553 94.6659 78.0751C94.7556 79.5949 85.9314 81.9314 85.9314 81.9314ZM85.2722 71.4959C83.5272 66.973 88.5683 66.1105 89.6541 67.6084C90.74 69.1044 86.0816 68.5441 86.1714 70.0639C86.2611 71.5839 89.0023 73.8342 90.8169 73.7262C92.6297 73.6183 98.797 72.221 98.6834 70.3075C98.6834 70.3075 105.735 67.7494 101.588 60.3442C101.588 60.3442 104.34 62.7892 102.986 66.5115C101.631 70.2326 99.3426 70.6133 99.3426 70.6133C99.3426 70.6133 98.8574 72.4133 95.3855 73.6035C91.9137 74.7937 87.0155 76.0188 85.2722 71.4959ZM70.6874 86.1375C67.0929 84.4309 66.5509 86.9231 66.5509 86.9231C66.5509 86.9231 66.6021 85.2952 67.8015 84.7825C69.0009 84.268 70.4036 83.8413 72.4819 85.6852C74.5583 87.531 74.6884 93.0354 74.6884 93.0354C74.6884 93.0354 74.2819 87.8423 70.6874 86.1375ZM63.936 90.6C61.0685 89.5196 58.4976 91.5705 58.4976 91.5705C58.4976 91.5705 59.4425 88.7853 63.3446 89.5562C67.2449 90.3271 67.287 96.8679 67.287 96.8679C67.287 96.8679 66.8018 91.6803 63.936 90.6ZM58.3017 85.5406C54.9416 82.001 56.5438 79.1518 56.5438 79.1518C56.5731 79.6407 55.848 82.3398 59.1715 85.2934C62.4968 88.2451 64.1631 87.3113 64.1631 87.3113C64.1631 87.3113 61.66 89.082 58.3017 85.5406ZM93.0362 69.1026C92.6792 71.1058 90.8865 70.5364 91.8606 71.4009C92.833 72.2649 99.6356 69.76 100.033 66.4896C100.033 66.4896 100.471 68.0863 97.6104 70.0511C94.7501 72.0179 90.5972 73.587 89.9215 71.0729C89.2458 68.5588 93.3951 67.0975 93.0362 69.1026ZM93.906 51.1048C93.906 51.1048 97.0885 47.5214 95.6108 45.0008C94.1331 42.4803 91.5603 40.5658 91.5603 40.5658C91.5603 40.5658 95.5467 41.4124 96.7021 45.133C97.8575 48.8537 93.906 51.1048 93.906 51.1048ZM63.4069 52.0737C65.6372 48.2018 68.1641 50.1683 68.1641 50.1683C68.9643 47.8731 70.1948 49.5559 70.1948 49.5559C70.1948 49.5559 71.0243 48.6211 72.6211 49.1256C74.2178 49.6303 72.9305 52.7529 72.9305 52.7529C72.9305 52.7529 73.1594 51.411 71.5279 51.5075C69.8963 51.604 70.5372 52.8325 70.5372 52.8325C70.5372 52.8325 69.867 51.4943 68.3948 51.5815C66.9244 51.6685 67.4298 53.3262 67.4298 53.3262C66.5088 52.5088 64.2143 54.0921 64.7546 56.3378C65.2947 58.5835 68.0304 61.1988 68.0304 61.1988C68.0304 61.1988 61.1747 55.9456 63.4069 52.0737ZM73.304 40.0976C72.198 41.3441 71.8135 42.4934 71.8135 42.4934C71.8135 42.4934 71.44 39.7649 72.9543 39.1588C74.4686 38.5525 76.0178 39.7894 76.0178 39.7894C76.0178 39.7894 74.4119 38.851 73.304 40.0976ZM93.9206 120.337C91.8991 117.801 93.8382 118.966 89.6834 115.274C85.5286 111.584 81.0039 106.635 78.9714 100.556C76.937 94.4763 80.6853 89.6293 84.0583 85.8334C87.4293 82.0356 95.1054 82.1821 97.3705 78.7964C99.6337 75.4106 96.7076 77.6574 95.5925 75.775C94.4773 73.8928 99.7985 75.0151 103.56 69.9447C108.674 63.0478 102.058 52.7578 96.281 54.1795C98.6852 52.1658 103.289 43.5504 97.1196 38.0715C92.5491 34.0117 86.1787 29.4681 76.1423 32.8178C66.1059 36.1675 69.5594 47.2262 69.5594 47.2262C69.5594 47.2262 60.098 46.0693 58.9243 53.8764C57.7505 61.6834 66.5527 64.325 66.5527 64.325C66.5527 64.325 63.3354 64.1824 63.6376 69.2819C63.9342 74.2955 68.8215 74.1581 69.4532 74.4493C69.4532 74.4493 71.3832 74.6306 72.2164 74.5811C72.2164 74.5811 71.7916 79.8712 74.3204 82.6729C76.8473 85.4763 78.2975 85.414 78.2975 85.414C78.2975 85.414 76.0873 86.7526 72.5551 82.7791C69.0229 78.8055 71.1159 75.9252 71.1159 75.9252C67.1698 75.5315 65.7031 74.4987 64.403 75.9526C64.3993 75.9563 64.3956 75.96 64.392 75.9655C62.5133 78.0786 62.2899 79.5856 62.2899 79.5856C62.2899 79.5856 58.1003 73.8414 54.0516 76.936C50.0012 80.0305 49.5434 85.5679 51.8634 89.0214C54.1835 92.4767 57.2414 90.9184 57.2414 90.9184C57.2414 90.9184 56.0988 93.2494 56.1923 94.8187C56.2856 96.388 58.721 97.6203 58.721 97.6203L59.8288 99.7206C60.9366 101.819 66.6845 102.672 66.6845 102.672C66.6845 102.672 66.7889 104.229 69.6949 105.141C72.6045 106.051 76.1936 111.841 79.4603 113.813C82.727 115.785 83.0255 114.192 83.0255 114.192C83.0255 114.192 84.1461 116.488 86.327 118.426C88.5079 120.363 89.385 118.539 91.8771 120.755C94.3711 122.969 100.291 128.228 100.291 128.228C100.291 128.228 95.9404 122.875 93.9206 120.337Z" fill="white"/>
<path d="M76.9669 45.6825C76.9669 45.6825 79.4425 39.7927 83.2421 43.1669C87.0417 46.5415 86.2067 53.8904 86.2067 53.8904C86.2067 53.8904 87.0289 52.9666 88.2612 55.7149C89.4936 58.4626 84.4086 62.9469 84.4086 62.9469C84.4086 62.9469 86.9868 63.767 84.8883 66.1287C82.7917 68.4908 77.009 69.4155 77.009 69.4155C77.009 69.4155 82.0794 67.9488 81.8779 64.5557C81.6765 61.1627 79.5048 62.2645 79.5048 62.2645C79.5048 62.2645 84.7272 59.6921 83.7109 56.7008C82.6946 53.7096 80.0413 55.4552 80.0413 55.4552C80.0413 55.4552 82.1929 53.4472 82.1013 51.8963C82.0098 50.3451 81.6436 47.4484 78.928 47.6089C76.2143 47.7698 75.5441 49.7645 75.5441 49.7645C75.5441 49.7645 71.5046 47.0756 72.5978 45.8437C73.6928 44.6113 75.0039 43.7555 76.9669 45.6825Z" fill="#E6E6E6"/>
<path d="M78.8084 109.391C74.8734 106.995 73.608 105.32 71.4619 101.945C69.3159 98.5704 66.82 100.76 65.8953 99.9401C64.9706 99.1179 65.6042 96.6496 64.1503 96.7356C62.6946 96.8217 59.5304 94.2856 58.0929 93.0075C56.6537 91.7312 57.8622 87.4775 57.8622 87.4775C57.8622 87.4775 56.2307 87.8657 53.9088 83.9654C52.3596 81.3652 55.0478 77.9978 57.0089 76.0421C56.0567 75.9487 55.0496 76.1722 54.0516 76.9358C50.0012 80.0303 49.5434 85.5676 51.8634 89.0212C54.1835 92.4765 57.2414 90.9182 57.2414 90.9182C57.2414 90.9182 56.0988 93.2492 56.1923 94.8185C56.2856 96.3878 58.721 97.6201 58.721 97.6201L59.8288 99.7204C60.9366 101.819 66.6845 102.672 66.6845 102.672C66.6845 102.672 66.7889 104.229 69.6949 105.14C72.6045 106.051 76.1936 111.841 79.4603 113.813C82.727 115.785 83.0255 114.192 83.0255 114.192C83.0255 114.192 84.1461 116.488 86.327 118.425C88.5079 120.363 89.385 118.539 91.8771 120.754C94.1148 122.741 99.1137 127.182 100.114 128.068C97.2643 125.334 87.9384 116.396 86.0304 114.703C83.7708 112.696 82.7453 111.784 78.8084 109.391Z" fill="#E6E6E6"/>
<path d="M84.807 83.1929C80.0626 84.6065 79.277 89.4186 79.277 89.4186C79.277 89.4186 78.5922 86.0549 77.7718 86.9796C76.9497 87.9043 74.7377 91.6325 76.1751 92.9106C77.6144 94.1869 74.626 93.0022 74.7981 95.91C74.9702 98.8141 82.888 114.637 92.7193 118.466C92.4483 117.922 92.0894 117.415 89.6796 115.274C85.5248 111.584 81.0001 106.635 78.9675 100.556C76.9332 94.4762 80.6815 89.6292 84.0545 85.8333C85.4919 84.2146 87.713 83.3119 89.9635 82.5464C88.0737 82.5922 86.2261 82.7699 84.807 83.1929Z" fill="#E6E6E6"/>
<path d="M90.1628 123.333C94.1254 123.846 99.485 129.416 102.358 132.51C96.7219 128.405 93.9643 124.499 90.1628 123.333Z" fill="white"/>
<path d="M82.8006 29.008C82.8006 29.008 80.812 26.3228 77.1241 26.5409C73.4381 26.7594 70.7537 33.7138 70.7537 33.7138C70.7537 33.7138 76.7213 26.7537 82.8006 29.008Z" fill="white"/>
<path d="M67.622 45.1975C67.622 45.1975 62.3538 45.1376 60.9292 47.5802C59.5046 50.0225 59.0523 50.0493 58.1624 49.2588C57.2725 48.4686 57.9262 47.4571 58.2009 47.149L58.4737 46.8409C58.4737 46.8409 57.4043 45.7694 58.1954 44.8794C58.9864 43.9893 60.0851 44.4757 60.0851 44.4757C60.0851 44.4757 59.9349 43.5766 60.8707 43.5211C61.8082 43.4658 67.622 45.1975 67.622 45.1975Z" fill="white"/>
<path d="M84.9874 28.6365C84.9874 28.6365 85.0094 27.9216 86.8259 28.4951C88.6442 29.0684 88.4849 29.1105 88.5379 30.0153C88.5911 30.9199 85.0479 29.6705 84.9874 28.6365Z" fill="white"/>
<path d="M100.463 53.025C100.463 53.025 101.615 54.0486 103.189 55.4467C104.764 56.8453 104.931 58.5865 104.931 58.5865C104.931 58.5865 105.975 56.5732 105.315 55.2535C104.656 53.9333 106.359 53.1192 104.512 51.4773C102.662 49.8358 100.463 53.025 100.463 53.025Z" fill="white"/>
</svg>
